<?xml version="1.0" standalone="no"?>
<!DOCTYPE svg PUBLIC "-//W3C//DTD SVG 20010904//EN"
 "http://www.w3.org/TR/2001/REC-SVG-20010904/DTD/svg10.dtd">
<svg version="1.0" xmlns="http://www.w3.org/2000/svg"
 width="16.000000pt" height="16.000000pt" viewBox="0 0 16.000000 16.000000"
 preserveAspectRatio="xMidYMid meet">
<metadata>
Created by potrace 1.11, written by Peter Selinger 2001-2013
</metadata>
<g transform="translate(0.000000,16.000000) scale(0.004444,-0.004444)"
fill="#000000" stroke="none">
<path d="M1115 2480 l-680 -680 683 -683 682 -682 682 682 683 683 -680 680
c-374 374 -682 680 -685 680 -3 0 -311 -306 -685 -680z m916 -76 c59 -18 158
-74 198 -110 6 -5 -120 -194 -129 -194 -4 0 -13 6 -19 14 -6 7 -44 28 -83 47
-189 87 -343 1 -382 -215 -6 -30 -4 -37 6 -33 137 60 142 61 238 61 113 1 173
-17 245 -72 104 -79 154 -174 162 -312 12 -198 -80 -350 -257 -420 -70 -28
-226 -38 -308 -20 -211 47 -333 225 -362 527 -10 111 1 269 25 364 41 157 136
279 267 343 124 61 249 67 399 20z"/>
<path d="M1732 1719 c-62 -31 -86 -70 -90 -149 -2 -53 1 -72 20 -105 75 -128
266 -125 334 6 21 41 18 132 -6 179 -30 59 -73 84 -150 88 -51 2 -74 -1 -108
-19z"/>
</g>
</svg>
